<mxfile host="app.diagrams.net" modified="2022-09-01T16:11:06.977Z" agent="5.0 (Windows NT 10.0; Win64; x64) AppleWebKit/537.36 (KHTML, like Gecko) Chrome/104.0.0.0 Safari/537.36" etag="ZOdpAlvA748zMJZWYX-z" version="20.2.7" type="github">
  <diagram id="gi1u2vlGa0-3R8m2AZVz" name="第 1 页">
    <mxGraphModel dx="1488" dy="907" grid="1" gridSize="10" guides="1" tooltips="1" connect="1" arrows="1" fold="1" page="1" pageScale="1" pageWidth="827" pageHeight="1169" math="0" shadow="0">
      <root>
        <mxCell id="0" />
        <mxCell id="1" parent="0" />
        <mxCell id="RBPp1nCXes4eAJ1BRV3U-6" value="MySQL Server" style="shape=umlLifeline;perimeter=lifelinePerimeter;whiteSpace=wrap;html=1;container=1;collapsible=0;recursiveResize=0;outlineConnect=0;" vertex="1" parent="1">
          <mxGeometry x="60" y="70" width="100" height="560" as="geometry" />
        </mxCell>
        <mxCell id="RBPp1nCXes4eAJ1BRV3U-10" value="" style="edgeStyle=none;orthogonalLoop=1;jettySize=auto;html=1;rounded=0;" edge="1" parent="RBPp1nCXes4eAJ1BRV3U-6">
          <mxGeometry width="80" relative="1" as="geometry">
            <mxPoint x="50" y="90" as="sourcePoint" />
            <mxPoint x="389.5" y="90" as="targetPoint" />
            <Array as="points" />
          </mxGeometry>
        </mxCell>
        <mxCell id="RBPp1nCXes4eAJ1BRV3U-7" value="二级索引" style="shape=umlLifeline;perimeter=lifelinePerimeter;whiteSpace=wrap;html=1;container=1;collapsible=0;recursiveResize=0;outlineConnect=0;" vertex="1" parent="1">
          <mxGeometry x="400" y="70" width="100" height="560" as="geometry" />
        </mxCell>
        <mxCell id="RBPp1nCXes4eAJ1BRV3U-8" value="主键索引" style="shape=umlLifeline;perimeter=lifelinePerimeter;whiteSpace=wrap;html=1;container=1;collapsible=0;recursiveResize=0;outlineConnect=0;" vertex="1" parent="1">
          <mxGeometry x="600" y="70" width="100" height="560" as="geometry" />
        </mxCell>
        <mxCell id="RBPp1nCXes4eAJ1BRV3U-9" value="" style="line;strokeWidth=1;fillColor=none;align=left;verticalAlign=middle;spacingTop=-1;spacingLeft=3;spacingRight=3;rotatable=0;labelPosition=right;points=[];portConstraint=eastwest;direction=south;" vertex="1" parent="1">
          <mxGeometry x="280" y="70" width="8" height="560" as="geometry" />
        </mxCell>
        <mxCell id="RBPp1nCXes4eAJ1BRV3U-11" value="1. 使用二级索引根据条件查询" style="text;html=1;resizable=0;autosize=1;align=center;verticalAlign=middle;points=[];fillColor=none;strokeColor=none;rounded=0;" vertex="1" parent="1">
          <mxGeometry x="105" y="130" width="180" height="30" as="geometry" />
        </mxCell>
        <mxCell id="RBPp1nCXes4eAJ1BRV3U-12" value="" style="edgeStyle=none;orthogonalLoop=1;jettySize=auto;html=1;rounded=0;" edge="1" parent="1">
          <mxGeometry width="80" relative="1" as="geometry">
            <mxPoint x="450" y="200" as="sourcePoint" />
            <mxPoint x="650" y="200" as="targetPoint" />
            <Array as="points" />
          </mxGeometry>
        </mxCell>
        <mxCell id="RBPp1nCXes4eAJ1BRV3U-13" value="2. 拿到主键id" style="text;html=1;resizable=0;autosize=1;align=center;verticalAlign=middle;points=[];fillColor=none;strokeColor=none;rounded=0;" vertex="1" parent="1">
          <mxGeometry x="490" y="170" width="90" height="30" as="geometry" />
        </mxCell>
      </root>
    </mxGraphModel>
  </diagram>
</mxfile>
